<?xml version="1.0" encoding="utf-8"?>
<!-- Generator: Adobe Illustrator 26.1.0, SVG Export Plug-In . SVG Version: 6.00 Build 0)  -->
<svg version="1.1" id="Layer_1" xmlns="http://www.w3.org/2000/svg" xmlns:xlink="http://www.w3.org/1999/xlink" x="0px" y="0px"
	 viewBox="0 0 198.43 198.43" style="enable-background:new 0 0 198.43 198.43;" xml:space="preserve">
<style type="text/css">
	.st0{fill:#FFFFFF;}
</style>
<path class="st0" d="M138.13,134.48c0.93,0.67,1.84,1.15,2.54,1.85c17.4,17.36,34.78,34.75,52.16,52.13
	c2.37,2.37,2.88,4.43,1.45,5.8c-1.45,1.39-3.51,0.87-5.83-1.47c-17.39-17.5-34.78-34.99-52.15-52.5c-0.7-0.7-1.19-1.62-1.85-2.54
	c-18.04,16.47-38.77,23.16-62.27,20.62c-21.4-2.31-38.72-12.33-52.24-29.1C-3.58,100.12-3.11,53.46,27.88,24.27
	c29.15-27.46,75.4-27.9,105.52-0.92C165.16,51.8,167.89,102.37,138.13,134.48z M153.22,81.35c0.08-40.06-31.9-72.16-71.99-72.27
	C41.38,8.98,9.16,41.07,9.08,80.94C9.01,121,40.98,153.1,81.07,153.21C120.93,153.31,153.14,121.23,153.22,81.35z"/>
<path class="st0" d="M78.22,84.08c-2.07,0-3.88,0-5.69,0c-7.16,0-14.32,0-21.49,0c-0.5,0-1,0.01-1.5,0
	c-2.63-0.04-4.22-1.12-4.27-2.87c-0.05-1.77,1.57-2.94,4.15-2.99c1.67-0.03,3.33-0.01,5-0.01c7.82,0,15.63,0,23.8,0
	c0-1.05,0-1.93,0-2.81c0-8.24,0-16.49,0-24.73c0-0.58,0-1.17,0-1.75c-0.01-2.04,0.91-3.56,3-3.53c1.94,0.02,2.85,1.48,2.86,3.41
	c0,0.58,0,1.17,0,1.75c0,8.24,0,16.49,0,24.73c0,0.89,0,1.78,0,2.93c2.07,0,3.88,0,5.69,0c7.16,0,14.32,0,21.49,0
	c0.5,0,1-0.01,1.5,0c2.63,0.04,4.22,1.12,4.27,2.87c0.05,1.77-1.57,2.94-4.15,2.99c-1.67,0.03-3.33,0.01-5,0.01
	c-7.82,0-15.63,0-23.8,0c0,1.05,0,1.93,0,2.81c0,8.24,0,16.49,0,24.73c0,0.58,0,1.17,0,1.75c0.01,2.04-0.91,3.56-3,3.53
	c-1.93-0.02-2.85-1.48-2.86-3.42c0-0.58,0-1.17,0-1.75c0-8.24,0-16.49,0-24.73C78.22,86.12,78.22,85.23,78.22,84.08z"/>
</svg>
