<?xml version="1.0" encoding="utf-8" ?>
<!-- Generator: Adobe Illustrator 26.1.0, SVG Export Plug-In . SVG Version: 6.00 Build 0)  -->
<svg
  version="1.1"
  id="Layer_1"
  xmlns="http://www.w3.org/2000/svg"
  xmlns:xlink="http://www.w3.org/1999/xlink"
  x="0px"
  y="0px"
  viewBox="0 0 512 512"
  style="enable-background:new 0 0 512 512;"
  xml:space="preserve"
>
<style type="text/css">
	.st0{fill:#FFFFFF;}
</style>
<path
    class="st0"
    d="M500.3,443.7L380.6,324c27.22-40.41,40.65-90.9,33.46-144.7c-12.23-91.55-87.28-166-178.9-177.6
	C98.96-15.54-15.54,98.98,1.76,235.1c11.6,91.64,86.07,166.7,177.6,178.9c53.81,7.19,104.3-6.23,144.7-33.46l119.7,119.7
	c15.62,15.62,40.95,15.62,56.57,0C515.9,484.7,515.9,459.3,500.3,443.7z M288,232h-56.9v56c0,13.26-10.74,24-23.1,24
	c-13.3,0-24-10.7-24-24v-56h-56.9c-12.4,0-23.1-10.7-23.1-24s10.74-24,23.1-24H184v-56c0-13.26,10.74-24,23.1-24s24,10.7,24,24v56
	h56c14.2,0,24.9,10.7,24.9,24S301.3,232,288,232z"
  />
</svg>
