<?xml version="1.0" encoding="utf-8" ?>
<!-- Generator: Adobe Illustrator 26.1.0, SVG Export Plug-In . SVG Version: 6.00 Build 0)  -->
<svg
  version="1.1"
  id="Layer_1"
  xmlns="http://www.w3.org/2000/svg"
  xmlns:xlink="http://www.w3.org/1999/xlink"
  x="0px"
  y="0px"
  viewBox="0 0 512 512"
  style="enable-background:new 0 0 512 512;"
  xml:space="preserve"
>
<path
    d="M500.3,443.7L380.6,324c27.22-40.41,40.65-90.9,33.46-144.7C401.8,87.79,326.8,13.32,235.2,1.72
	C99.01-15.51-15.51,99.01,1.72,235.2c11.6,91.64,86.08,166.7,177.6,178.9c53.8,7.19,104.3-6.24,144.7-33.46l119.7,119.7
	c15.62,15.62,40.95,15.62,56.57,0C515.9,484.7,515.9,459.3,500.3,443.7z M79.1,208c0-70.58,57.42-128,128-128s128,57.42,128,128
	s-57.42,128-128,128S79.1,278.6,79.1,208z"
  />
</svg>
